<svg width="393" height="628" viewBox="0 0 393 628" fill="none" xmlns="http://www.w3.org/2000/svg">
<g clip-path="url(#clip0_6_435)">
<path d="M385 49C385 57.2733 383.37 65.4656 380.204 73.1091C377.038 80.7526 372.398 87.6976 366.548 93.5477C360.698 99.3978 353.753 104.038 346.109 107.204C338.466 110.37 330.273 112 322 112C313.727 112 305.534 110.37 297.891 107.204C290.247 104.038 283.302 99.3978 277.452 93.5477C271.602 87.6976 266.962 80.7526 263.796 73.1091C260.63 65.4655 259 57.2733 259 49L385 49Z" fill="#1E1E1E"/>
<path d="M385 112C385 120.273 383.37 128.466 380.204 136.109C377.038 143.753 372.398 150.698 366.548 156.548C360.698 162.398 353.753 167.038 346.109 170.204C338.466 173.37 330.273 175 322 175C313.727 175 305.534 173.37 297.891 170.204C290.247 167.038 283.302 162.398 277.452 156.548C271.602 150.698 266.962 143.753 263.796 136.109C260.63 128.466 259 120.273 259 112L322 112H385Z" fill="#1E1E1E"/>
<path d="M259 678C259 669.727 260.63 661.534 263.796 653.891C266.962 646.247 271.602 639.302 277.452 633.452C283.302 627.602 290.247 622.962 297.891 619.796C305.534 616.63 313.727 615 322 615C330.273 615 338.466 616.63 346.109 619.796C353.753 622.962 360.698 627.602 366.548 633.452C372.398 639.302 377.038 646.247 380.204 653.891C383.37 661.534 385 669.727 385 678L259 678Z" fill="#1E1E1E"/>
<path d="M259 615C259 606.727 260.63 598.534 263.796 590.891C266.962 583.247 271.602 576.302 277.452 570.452C283.302 564.602 290.247 559.962 297.891 556.796C305.534 553.63 313.727 552 322 552C330.273 552 338.466 553.63 346.109 556.796C353.753 559.962 360.698 564.602 366.548 570.452C372.398 576.302 377.038 583.247 380.204 590.891C383.37 598.534 385 606.727 385 615L322 615L259 615Z" fill="#1E1E1E"/>
<path d="M8 678C8 669.727 9.62954 661.534 12.7956 653.891C15.9616 646.247 20.6022 639.302 26.4523 633.452C32.3024 627.602 39.2474 622.962 46.8909 619.796C54.5344 616.63 62.7267 615 71 615C79.2733 615 87.4655 616.63 95.1091 619.796C102.753 622.962 109.698 627.602 115.548 633.452C121.398 639.302 126.038 646.247 129.204 653.891C132.37 661.534 134 669.727 134 678L8 678Z" fill="#1E1E1E"/>
<path d="M7.99999 615C7.99999 606.727 9.62953 598.534 12.7956 590.891C15.9616 583.247 20.6022 576.302 26.4523 570.452C32.3024 564.602 39.2474 559.962 46.8909 556.796C54.5344 553.63 62.7267 552 71 552C79.2733 552 87.4655 553.63 95.1091 556.796C102.753 559.962 109.698 564.602 115.548 570.452C121.398 576.302 126.038 583.247 129.204 590.891C132.37 598.534 134 606.727 134 615L71 615L7.99999 615Z" fill="#1E1E1E"/>
<path d="M134 49C134 57.2733 132.37 65.4656 129.204 73.1091C126.038 80.7526 121.398 87.6976 115.548 93.5477C109.698 99.3978 102.753 104.038 95.1091 107.204C87.4655 110.37 79.2733 112 71 112C62.7267 112 54.5345 110.37 46.8909 107.204C39.2474 104.038 32.3024 99.3978 26.4523 93.5477C20.6022 87.6976 15.9616 80.7526 12.7956 73.1091C9.62954 65.4655 8 57.2733 8 49L134 49Z" fill="#1E1E1E"/>
<path d="M134 112C134 120.273 132.37 128.466 129.204 136.109C126.038 143.753 121.398 150.698 115.548 156.548C109.698 162.398 102.753 167.038 95.1091 170.204C87.4655 173.37 79.2733 175 71 175C62.7267 175 54.5345 173.37 46.8909 170.204C39.2474 167.038 32.3024 162.398 26.4523 156.548C20.6022 150.698 15.9616 143.753 12.7956 136.109C9.62954 128.466 8 120.273 8 112L71 112H134Z" fill="#1E1E1E"/>
<circle cx="196" cy="564" r="62" fill="#1E1E1E"/>
<path d="M134 30C134 13.4315 147.431 0 164 0H259V95C259 111.569 245.569 125 229 125H164C147.431 125 134 111.569 134 95V30Z" fill="#1E1E1E"/>
<path d="M385 175C385 183.251 383.37 191.422 380.204 199.045C377.038 206.669 372.398 213.595 366.548 219.43C360.698 225.264 353.753 229.893 346.109 233.05C338.466 236.208 330.273 237.833 322 237.833C313.727 237.833 305.534 236.208 297.891 233.05C290.247 229.893 283.302 225.264 277.452 219.43C271.602 213.595 266.962 206.669 263.796 199.045C260.63 191.422 259 183.251 259 175L385 175Z" fill="#1E1E1E"/>
<path d="M385 237.833C385 246.085 383.37 254.255 380.204 261.879C377.038 269.502 372.398 276.429 366.548 282.263C360.698 288.098 353.753 292.726 346.109 295.884C338.466 299.041 330.273 300.667 322 300.667C313.727 300.667 305.534 299.041 297.891 295.884C290.247 292.726 283.302 288.098 277.452 282.263C271.602 276.429 266.962 269.502 263.796 261.879C260.63 254.255 259 246.085 259 237.833L322 237.833H385Z" fill="#1E1E1E"/>
<path d="M385 300.667C385 308.918 383.37 317.089 380.204 324.712C377.038 332.335 372.398 339.262 366.548 345.097C360.698 350.931 353.753 355.559 346.109 358.717C338.466 361.875 330.273 363.5 322 363.5C313.727 363.5 305.534 361.875 297.891 358.717C290.247 355.559 283.302 350.931 277.452 345.097C271.602 339.262 266.962 332.335 263.796 324.712C260.63 317.089 259 308.918 259 300.667L322 300.667H385Z" fill="#1E1E1E"/>
<path d="M259 552C259 543.749 260.63 535.578 263.796 527.955C266.962 520.331 271.602 513.405 277.452 507.57C283.302 501.736 290.247 497.107 297.891 493.95C305.534 490.792 313.727 489.167 322 489.167C330.273 489.167 338.466 490.792 346.109 493.95C353.753 497.107 360.698 501.736 366.548 507.57C372.398 513.405 377.038 520.331 380.204 527.955C383.37 535.578 385 543.749 385 552H259Z" fill="#1E1E1E"/>
<path d="M385 363.5C385 371.751 383.37 379.922 380.204 387.545C377.038 395.169 372.398 402.095 366.548 407.93C360.698 413.765 353.753 418.393 346.109 421.55C338.466 424.708 330.273 426.333 322 426.333C313.727 426.333 305.534 424.708 297.891 421.55C290.247 418.393 283.302 413.765 277.452 407.93C271.602 402.095 266.962 395.169 263.796 387.545C260.63 379.922 259 371.751 259 363.5H322H385Z" fill="#1E1E1E"/>
<path d="M259 489.167C259 480.915 260.63 472.745 263.796 465.121C266.962 457.498 271.602 450.571 277.452 444.737C283.302 438.902 290.247 434.274 297.891 431.116C305.534 427.959 313.727 426.333 322 426.333C330.273 426.333 338.466 427.959 346.109 431.116C353.753 434.274 360.698 438.902 366.548 444.737C372.398 450.571 377.038 457.498 380.204 465.121C383.37 472.745 385 480.915 385 489.167H322H259Z" fill="#1E1E1E"/>
<path d="M134 177C134 185.208 132.37 193.335 129.204 200.918C126.038 208.501 121.398 215.391 115.548 221.194C109.698 226.998 102.753 231.602 95.109 234.742C87.4655 237.883 79.2733 239.5 71 239.5C62.7267 239.5 54.5345 237.883 46.8909 234.742C39.2474 231.602 32.3024 226.998 26.4523 221.194C20.6022 215.391 15.9616 208.501 12.7956 200.918C9.62954 193.335 8 185.208 8 177L134 177Z" fill="#1E1E1E"/>
<path d="M8.00001 552C8.00001 543.792 9.62955 535.665 12.7956 528.082C15.9616 520.499 20.6022 513.609 26.4523 507.806C32.3024 502.002 39.2474 497.398 46.8909 494.258C54.5345 491.117 62.7267 489.5 71 489.5C79.2733 489.5 87.4655 491.117 95.1091 494.258C102.753 497.398 109.698 502.002 115.548 507.806C121.398 513.609 126.038 520.499 129.204 528.082C132.37 535.665 134 543.792 134 552H8.00001Z" fill="#1E1E1E"/>
<path d="M134 239.5C134 247.708 132.37 255.835 129.204 263.418C126.038 271.001 121.398 277.891 115.548 283.694C109.698 289.498 102.753 294.102 95.109 297.242C87.4655 300.383 79.2733 302 71 302C62.7267 302 54.5345 300.383 46.8909 297.242C39.2474 294.102 32.3024 289.498 26.4523 283.694C20.6022 277.891 15.9616 271.001 12.7956 263.418C9.62954 255.835 8 247.708 8 239.5L71 239.5H134Z" fill="#1E1E1E"/>
<path d="M8.00001 489.5C8.00001 481.292 9.62955 473.165 12.7956 465.582C15.9616 457.999 20.6022 451.109 26.4523 445.306C32.3024 439.502 39.2474 434.898 46.8909 431.758C54.5345 428.617 62.7267 427 71 427C79.2733 427 87.4655 428.617 95.1091 431.758C102.753 434.898 109.698 439.502 115.548 445.306C121.398 451.109 126.038 457.999 129.204 465.582C132.37 473.165 134 481.292 134 489.5H71H8.00001Z" fill="#1E1E1E"/>
<path d="M8 327.266C8 313.312 19.4024 302 33.4681 302H134V401.734C134 415.688 122.598 427 108.532 427H33.4681C19.4024 427 8 415.688 8 401.734V327.266Z" fill="#1E1E1E"/>
<path d="M134 502C134 493.749 135.604 485.578 138.719 477.955C141.835 470.331 146.402 463.405 152.159 457.57C157.917 451.735 164.751 447.107 172.274 443.95C179.796 440.792 187.858 439.167 196 439.167C204.142 439.167 212.204 440.792 219.726 443.95C227.249 447.107 234.083 451.736 239.841 457.57C245.598 463.405 250.165 470.331 253.281 477.955C256.396 485.578 258 493.749 258 502L134 502Z" fill="#1E1E1E"/>
<path d="M258 125C258 133.251 256.396 141.422 253.281 149.045C250.165 156.669 245.598 163.595 239.841 169.43C234.083 175.265 227.249 179.893 219.726 183.05C212.204 186.208 204.142 187.833 196 187.833C187.858 187.833 179.796 186.208 172.274 183.05C164.751 179.893 157.917 175.264 152.159 169.43C146.402 163.595 141.835 156.669 138.719 149.045C135.604 141.422 134 133.251 134 125L258 125Z" fill="#1E1E1E"/>
<path d="M134 439.167C134 430.915 135.604 422.745 138.719 415.121C141.835 407.498 146.402 400.571 152.159 394.737C157.917 388.902 164.751 384.274 172.274 381.116C179.796 377.959 187.858 376.333 196 376.333C204.142 376.333 212.204 377.959 219.726 381.116C227.249 384.274 234.083 388.902 239.841 394.737C245.598 400.571 250.165 407.498 253.281 415.121C256.396 422.745 258 430.915 258 439.167L196 439.167L134 439.167Z" fill="#1E1E1E"/>
<path d="M196 376.333C161.758 376.333 134 348.202 134 313.5C134 278.798 161.758 250.667 196 250.667C230.242 250.667 258 278.798 258 313.5C258 348.202 230.242 376.333 196 376.333Z" fill="#1E1E1E"/>
<path d="M258 187.833C258 196.085 256.396 204.255 253.281 211.879C250.165 219.502 245.598 226.429 239.841 232.263C234.083 238.098 227.249 242.726 219.726 245.884C212.204 249.041 204.142 250.667 196 250.667C187.858 250.667 179.796 249.041 172.274 245.884C164.751 242.726 157.917 238.098 152.159 232.263C146.402 226.429 141.835 219.502 138.719 211.879C135.604 204.255 134 196.085 134 187.833L196 187.833L258 187.833Z" fill="#1E1E1E"/>
<rect x="393" y="84" width="393" height="98" transform="rotate(-180 393 84)" fill="url(#paint0_linear_6_435)"/>
</g>
<defs>
<linearGradient id="paint0_linear_6_435" x1="661" y1="152" x2="661" y2="31" gradientUnits="userSpaceOnUse">
<stop offset="0.199672" stop-color="#121214"/>
<stop offset="0.59583" stop-color="#121214" stop-opacity="0"/>
</linearGradient>
<clipPath id="clip0_6_435">
<rect width="393" height="628" fill="white"/>
</clipPath>
</defs>
</svg>
