<svg width="286" height="206" viewBox="0 0 286 206" fill="none" xmlns="http://www.w3.org/2000/svg">
<g filter="url(#filter0_bd_6_115)">
<path d="M160.592 14.4614V42.9516C160.592 44.8154 158.985 46.413 157.11 46.413H128.717C126.842 46.413 125.235 44.8154 125.235 42.9516V14.4614C125.235 12.5976 126.842 11 128.717 11H157.377C159.252 11 160.592 12.5976 160.592 14.4614Z" fill="white" fill-opacity="0.15" shape-rendering="crispEdges"/>
<path d="M50.7702 67.4478V130.286C50.7702 142.002 60.4131 151.587 72.1988 151.587H108.895C110.77 151.587 112.377 153.185 112.377 155.048V183.539C112.377 185.402 110.77 187 108.895 187H72.1988C40.8595 186.734 15.4131 161.439 15.4131 130.286V67.4478C15.4131 36.295 40.8595 11 72.1988 11H108.895C110.77 11 112.377 12.5976 112.377 14.4614V42.9516C112.377 44.8154 110.77 46.413 108.895 46.413H72.1988C60.4131 46.1467 50.7702 55.7322 50.7702 67.4478Z" fill="white" fill-opacity="0.15" shape-rendering="crispEdges"/>
<path d="M270.413 67.4478V130.286C270.413 161.439 244.967 186.734 213.627 186.734H128.717C126.842 186.734 125.235 185.136 125.235 183.272V62.3888C125.235 60.525 126.842 58.9274 128.717 58.9274H157.377C159.252 58.9274 160.86 60.525 160.86 62.3888V148.126C160.86 149.989 162.467 151.587 164.342 151.587H213.627C225.413 151.587 235.056 142.001 235.056 130.286V67.4478C235.056 55.7322 225.413 46.1467 213.627 46.1467H176.931C175.056 46.1467 173.449 44.5492 173.449 42.6853V14.4614C173.449 12.5976 175.056 11 176.931 11H213.627C244.967 11 270.413 36.295 270.413 67.4478Z" fill="white" fill-opacity="0.15" shape-rendering="crispEdges"/>
<path d="M160.092 14.4614V42.9516C160.092 44.5365 158.711 45.913 157.11 45.913H128.717C127.115 45.913 125.735 44.5365 125.735 42.9516V14.4614C125.735 12.8765 127.115 11.5 128.717 11.5H157.377C158.928 11.5 160.092 12.8229 160.092 14.4614ZM50.2702 67.4478V130.286C50.2702 142.28 60.1398 152.087 72.1988 152.087H108.895C110.497 152.087 111.877 153.464 111.877 155.048V183.539C111.877 185.123 110.497 186.5 108.895 186.5L72.2031 186.5C72.2025 186.5 72.2019 186.5 72.2013 186.5C41.132 186.235 15.9131 161.158 15.9131 130.286V67.4478C15.9131 36.574 41.1328 11.5 72.1988 11.5H108.895C110.497 11.5 111.877 12.8765 111.877 14.4614V42.9516C111.877 44.5365 110.497 45.913 108.895 45.913H72.2045C60.137 45.6435 50.2702 55.4573 50.2702 67.4478ZM269.913 67.4478V130.286C269.913 161.16 244.693 186.234 213.627 186.234H128.717C127.115 186.234 125.735 184.857 125.735 183.272V62.3888C125.735 60.8039 127.115 59.4274 128.717 59.4274H157.377C158.979 59.4274 160.36 60.8039 160.36 62.3888V148.126C160.36 150.268 162.193 152.087 164.342 152.087H213.627C225.686 152.087 235.556 142.28 235.556 130.286V67.4478C235.556 55.4533 225.686 45.6467 213.627 45.6467H176.931C175.329 45.6467 173.949 44.2702 173.949 42.6853V14.4614C173.949 12.8765 175.329 11.5 176.931 11.5H213.627C244.693 11.5 269.913 36.574 269.913 67.4478Z" stroke="url(#paint0_linear_6_115)" shape-rendering="crispEdges"/>
</g>
<defs>
<filter id="filter0_bd_6_115" x="-14.5869" y="-19" width="315" height="236" filterUnits="userSpaceOnUse" color-interpolation-filters="sRGB">
<feFlood flood-opacity="0" result="BackgroundImageFix"/>
<feGaussianBlur in="BackgroundImageFix" stdDeviation="15"/>
<feComposite in2="SourceAlpha" operator="in" result="effect1_backgroundBlur_6_115"/>
<feColorMatrix in="SourceAlpha" type="matrix" values="0 0 0 0 0 0 0 0 0 0 0 0 0 0 0 0 0 0 127 0" result="hardAlpha"/>
<feOffset dy="4"/>
<feGaussianBlur stdDeviation="7.5"/>
<feComposite in2="hardAlpha" operator="out"/>
<feColorMatrix type="matrix" values="0 0 0 0 0 0 0 0 0 0 0 0 0 0 0 0 0 0 0.5 0"/>
<feBlend mode="normal" in2="effect1_backgroundBlur_6_115" result="effect2_dropShadow_6_115"/>
<feBlend mode="normal" in="SourceGraphic" in2="effect2_dropShadow_6_115" result="shape"/>
</filter>
<linearGradient id="paint0_linear_6_115" x1="142.913" y1="11" x2="142.913" y2="187" gradientUnits="userSpaceOnUse">
<stop stop-color="white"/>
<stop offset="0.536458" stop-color="white" stop-opacity="0"/>
<stop offset="1" stop-color="white"/>
</linearGradient>
</defs>
</svg>
